<svg id="Layer_1" data-name="Layer 1" xmlns="http://www.w3.org/2000/svg" viewBox="0 0 18.13 18.13"><defs><style>.cls-1{fill:#77b82a;}</style></defs><path id="Path_38" data-name="Path 38" class="cls-1" d="M9.07,18.13A9.07,9.07,0,1,0,0,9.06,9.07,9.07,0,0,0,9.07,18.13ZM1.28,9.69H4.69a13.24,13.24,0,0,0,1.75,6.73A7.83,7.83,0,0,1,1.28,9.69ZM9.07,1.25c1.41,0,3,2.92,3.12,7.19H5.94c.14-4.27,1.71-7.19,3.13-7.19Zm3.12,8.44c-.14,4.26-1.71,7.19-3.12,7.19S6.08,14,5.94,9.69Zm-.5,6.73a13.24,13.24,0,0,0,1.75-6.73h3.41a7.83,7.83,0,0,1-5.16,6.73Zm5.16-8H13.44a13.21,13.21,0,0,0-1.75-6.73,7.82,7.82,0,0,1,5.16,6.73ZM6.44,1.71A13.11,13.11,0,0,0,4.69,8.44H1.28A7.82,7.82,0,0,1,6.44,1.71Z"/></svg>